<!DOCTYPE svg PUBLIC "-//W3C//DTD SVG 20010904//EN" "http://www.w3.org/TR/2001/REC-SVG-20010904/DTD/svg10.dtd">
<svg version="1.0" xmlns="http://www.w3.org/2000/svg" width="150px" height="310px" viewBox="0 0 1500 3100" preserveAspectRatio="xMidYMid meet">
<g id="layer101" fill="#020202" stroke="none">
 <path d="M125 3017 c-3 -6 -4 -198 -3 -425 l3 -413 325 -140 c178 -77 334 -138 345 -137 19 3 40 49 135 298 89 233 162 416 170 423 9 10 14 -14 56 -235 l28 -147 -29 -56 c-52 -103 -44 -197 21 -255 30 -26 43 -30 89 -30 47 0 55 -3 55 -19 0 -15 -10 -19 -60 -24 -67 -6 -168 -48 -233 -99 -67 -50 -227 -209 -255 -253 -20 -31 -27 -58 -32 -122 -6 -76 -9 -85 -42 -121 -43 -48 -78 -136 -78 -198 0 -48 11 -76 41 -109 15 -17 16 -27 9 -60 -24 -103 -3 -459 33 -555 44 -118 156 -192 322 -211 44 -5 100 -13 125 -19 25 -5 87 -9 138 -10 l92 0 0 1465 0 1465 -625 0 c-492 0 -627 -3 -630 -13z m1195 -552 l0 -505 -39 0 c-45 0 -85 34 -94 80 -7 34 13 100 43 137 11 14 20 36 20 48 0 27 -99 556 -106 567 -8 13 -51 9 -57 -4 -104 -264 -307 -791 -307 -798 0 -6 -5 -10 -12 -10 -7 0 -139 55 -295 122 l-283 122 0 373 0 373 565 0 565 0 0 -505z m0 -1190 l0 -514 -42 -19 c-36 -16 -49 -31 -83 -91 -21 -40 -55 -86 -74 -103 -31 -27 -39 -30 -88 -26 -64 6 -101 29 -127 82 -16 33 -19 67 -22 244 -2 147 -7 224 -18 265 -18 66 -42 116 -56 118 -6 1 -14 3 -20 4 -5 1 -13 3 -16 4 -3 0 2 11 10 23 10 14 16 44 16 78 0 87 14 120 85 197 138 152 294 253 388 253 l47 0 0 -515z m-555 -113 c7 -61 -1 -92 -35 -131 -28 -32 -44 -16 -42 41 2 43 46 148 62 148 4 0 11 -26 15 -58z m57 -349 c3 -188 4 -201 28 -248 21 -43 34 -55 90 -83 56 -29 73 -33 122 -30 73 5 115 38 168 128 21 36 49 76 61 90 l24 25 3 -264 c1 -145 1 -266 -1 -268 -2 -2 -44 1 -93 7 -282 31 -322 42 -393 106 -59 53 -77 95 -92 216 -16 125 -16 362 -1 415 12 41 55 103 72 103 4 0 10 -89 12 -197z"/>
 </g>

</svg>